<svg
      xmlns="http://www.w3.org/2000/svg"
      width="36mm"
      height="36mm"
      version="1.1"
      viewBox="0 0 36 36"
    >
      <g transform="translate(-238.422 52.352)">
        <g transform="scale(.64806) rotate(45 412.758 405.768)">
          <path
            fill="#ca0b4a"
            fillOpacity="1"
            stroke="none"
            strokeLinecap="butt"
            strokeLinejoin="miter"
            strokeOpacity="1"
            strokeWidth="0.265"
            d="M67.99 96.537c-.193 0-.374.02-.545.056-1.224.272-1.905 1.397-2.076 1.718l-6.422 13.89c-.091.228-.37 1.041 0 1.68.448.778 1.485.778 1.485.778h15.19c.24-.016 1.032-.117 1.411-.773.433-.75-.026-1.746-.027-1.748L70.654 98.4c-.002-.004-.863-1.864-2.663-1.864z"
          ></path>
          <path
            fill="#ca0b4a"
            fillOpacity="1"
            stroke="none"
            strokeLinecap="butt"
            strokeLinejoin="miter"
            strokeOpacity="1"
            strokeWidth="0.265"
            d="M85.083 96.537c-.194 0-.375.02-.546.056-1.224.272-1.905 1.397-2.076 1.718L76.04 112.2c-.091.228-.37 1.041 0 1.68.448.778 1.485.778 1.485.778h15.19c.24-.016 1.032-.117 1.412-.773.433-.75-.027-1.746-.028-1.748L87.747 98.4c-.003-.004-.864-1.864-2.664-1.864z"
          ></path>
          <path
            fill="#f4f4f4"
            fillOpacity="1"
            stroke="none"
            strokeLinecap="butt"
            strokeLinejoin="miter"
            strokeOpacity="1"
            strokeWidth="0.265"
            d="M76.674 65.902l-6.785.513c-1.497.113-3.153 7.316-3.641 8.694-1.02 2.87-2.254 8.88-2.409 14.706-.159 2.7-.02 7.66.81 11.117 1.33 5.533 3.705 9.262 3.976 9.11h16.097c.272.152 2.646-3.577 3.976-9.11.831-3.457.97-8.418.81-11.117-.154-5.826-1.388-11.836-2.408-14.706-.488-1.378-2.145-8.581-3.642-8.694z"
          ></path>
          <circle
            cx="76.674"
            cy="79.706"
            r="6.535"
            fill="#9b9b9b"
            fillOpacity="1"
            stroke="none"
            strokeDasharray="none"
            strokeMiterlimit="4"
            strokeWidth="2.678"
            paintOrder="markers fill stroke"
          ></circle>
          <path
            fill="#fd8156"
            strokeWidth="0.265"
            d="M75.823 131.655c-.546-.096-1.165-.554-2.344-1.733-4.028-4.028-5.14-8.708-2.82-11.876.467-.638.673-.756 1.013-.58l9.729-.164c1.026.211 1.246 1.242 1.519 2.748.429 2.367-.8 6.468-2.189 7.307-.42.254-.596.205-.86-.235-.182-.305-.445-.528-.583-.495-.138.033-.546.846-.906 1.807-.36.96-.917 2.108-1.237 2.55-.49.675-.699.781-1.322.671z"
          ></path>
          <path
            fill="#c90a49"
            strokeWidth="1"
            d="M289.79 215.205c-3.38 0-6.857.944-10.331 2.854-6.437 3.537-8.636 6.557-15.86 21.785-11.772 24.818-21.76 58.762-24.275 82.498-1.454 13.726-.781 44.025 1.194 53.818l4.7 21.11 14.235 24.742-.082-6.102c-8.406-19.281-14.082-44.409-14.47-66.017-.515-28.645 5.23-58.897 16.794-88.43l2.971-7.584 25.123.006h.002l25.123-.006 2.97 7.584c11.566 29.533 17.31 59.785 16.796 88.43-.389 21.608-6.065 46.736-14.471 66.017l-.08 6.102 14.232-24.742 4.702-21.11c1.974-9.793 2.647-40.092 1.193-53.818-2.514-23.736-12.503-57.68-24.275-82.498-7.224-15.228-9.423-18.248-15.86-21.785-3.474-1.91-6.951-2.854-10.33-2.854h-.002z"
            transform="scale(.26458)"
          ></path>
          <rect
            width="15.777"
            height="6.002"
            x="68.647"
            y="111.657"
            fill="#533566"
            fillOpacity="1"
            stroke="none"
            strokeWidth="0"
            paintOrder="markers fill stroke"
            ry="3.001"
          ></rect>
          <path
            fill="#f92f60"
            fillOpacity="1"
            stroke="none"
            strokeLinecap="butt"
            strokeLinejoin="miter"
            strokeOpacity="1"
            strokeWidth="0.265"
            d="M76.537 96.533c-.194 0-.375.02-.546.056-1.224.271-1.905 1.397-2.076 1.718l-6.422 13.89c-.091.228-.37 1.04 0 1.68.448.778 1.485.778 1.485.778h15.19c.24-.016 1.032-.117 1.411-.774.434-.75-.026-1.745-.027-1.747l-6.351-13.737H79.2c-.002-.004-.863-1.864-2.663-1.864z"
          ></path>
          <circle
            cx="76.674"
            cy="79.706"
            r="4.55"
            fill="#83cbff"
            fillOpacity="1"
            stroke="none"
            strokeDasharray="none"
            strokeMiterlimit="4"
            strokeWidth="1.865"
            paintOrder="markers fill stroke"
          ></circle>
        </g>
      </g>
    </svg>