<svg
  xmlns="http://www.w3.org/2000/svg"
  width="231.36"
  height="231.36"
  version="1.1"
  viewBox="0 0 61.214 61.214"
>
      <path
    fill="#d25087"
    stroke="none"
    strokeWidth="1"
    d="M119.172 17.5l12.582 95.615L173.127 17.5h-53.955zm-11.348 22.018l-75.433 174.34h55.773l32.668-75.499-13.008-98.841z"
    transform="scale(.26458)"
  />
      <path
    fill="#d25087"
    stroke="none"
    d="M31.05 4.63l5.331 40.51c.044.066.083.147.128.212a29.917 29.917 0 002.336 2.944 28.63 28.63 0 004.856 4.287 27.663 27.663 0 002.323 1.452 26.82 26.82 0 002.12 1.065c1.325.592 2.45.963 3.245 1.186.793.223 1.255.298 1.255.298L45.807 4.63z"
  />
      <path
    fill="none"
    stroke="none"
    strokeLinecap="butt"
    strokeLinejoin="miter"
    strokeOpacity="1"
    strokeWidth="0.265"
    d="M26.112 6.136l5.338 40.557 2.496-12.051-4.452-29.703z"
  />
    </svg>
